<svg width="24" height="25" viewBox="0 0 24 25" fill="none" xmlns="http://www.w3.org/2000/svg">
<path d="M5 3.31934C3.897 3.31934 3 4.21634 3 5.31934V19.3193C3 20.4223 3.897 21.3193 5 21.3193H11.6211H14.4141H19C20.103 21.3193 21 20.4223 21 19.3193V5.31934C21 4.21634 20.103 3.31934 19 3.31934H5ZM5 5.31934H19L19.002 19.3193H14.4141V15.3545H16.7793L17.1309 12.6299H14.4297V10.8936C14.4297 10.1056 14.6493 9.57324 15.7793 9.57324H17.207V7.1416C16.512 7.0706 15.8142 7.03609 15.1152 7.03809C13.0412 7.03809 11.6211 8.30393 11.6211 10.6279V12.6338H9.27734V15.3584H11.6211V19.3193H5V5.31934Z" fill="white"/>
</svg>
